<?xml version="1.0" encoding="utf-8"?>
<!-- Generator: Adobe Illustrator 24.1.2, SVG Export Plug-In . SVG Version: 6.00 Build 0)  -->
<svg version="1.1" id="Laag_1" xmlns="http://www.w3.org/2000/svg" xmlns:xlink="http://www.w3.org/1999/xlink" x="0px" y="0px"
	 viewBox="0 0 86.6508026 16.5599995" style="enable-background:new 0 0 86.6508026 16.5599995;" xml:space="preserve">
<style type="text/css">
	.st0{fill:#0B1033;}
	.st1{fill:#7B5EED;}
	.st2{fill:#FFFFFF;}
</style>
<g>
	<g>
		<path class="st0" d="M26.160078,12.6239939c-0.8481445,0-1.5761719-0.1821289-2.184082-0.5458984
			c-0.6079102-0.3642578-1.0761719-0.8720703-1.4038086-1.5239258c-0.328125-0.6523438-0.4921875-1.40625-0.4921875-2.262207
			s0.1640625-1.6118159,0.4921875-2.2680659c0.3276367-0.6557617,0.7958984-1.1679688,1.4038086-1.5361328
			c0.6079102-0.3676758,1.3359375-0.5517581,2.184082-0.5517581c1.0078125,0,1.8339844,0.2500002,2.4780273,0.7500002
			c0.6435547,0.5,1.0458984,1.2021484,1.2060547,2.105957h-1.6923828c-0.1040039-0.4560547-0.3256836-0.8139648-0.6660156-1.0742188
			c-0.3398438-0.2597656-0.7900391-0.3896484-1.3496094-0.3896484c-0.7763672,0-1.3842773,0.2636719-1.8242188,0.7919922
			c-0.4399414,0.527832-0.6601563,1.2519531-0.6601563,2.1718745s0.2202148,1.6420898,0.6601563,2.1660156
			s1.0478516,0.7861328,1.8242188,0.7861328c0.5595703,0,1.0097656-0.1220703,1.3496094-0.3662109
			c0.340332-0.2436523,0.5620117-0.5820313,0.6660156-1.0141602h1.6923828
			c-0.1601563,0.8642578-0.5625,1.5405273-1.2060547,2.0283203C27.9940624,12.3798532,27.1678905,12.6239939,26.160078,12.6239939z"
			/>
		<path class="st0" d="M34.0204315,12.6239939c-0.5761719,0-1.0942383-0.1318359-1.5541992-0.3959961
			s-0.8242207-0.6298828-1.0917988-1.0981445c-0.2685547-0.4677734-0.4023438-1.0097656-0.4023438-1.6259766
			c0-0.6157227,0.1362305-1.1577148,0.4082031-1.6259761c0.2719727-0.4677734,0.6376972-0.8339844,1.0981464-1.0981445
			C32.937912,6.5160842,33.4559784,6.38376,34.0321503,6.38376c0.5678711,0,1.0820313,0.1323242,1.5419922,0.3959961
			c0.4599609,0.2641602,0.8237305,0.6303711,1.0922852,1.0981445c0.2675781,0.4682612,0.4018555,1.0102534,0.4018555,1.6259761
			c0,0.6162109-0.1342773,1.1582031-0.4018555,1.6259766c-0.2685547,0.4682617-0.6342773,0.8339844-1.0981445,1.0981445
			C35.1039276,12.4921579,34.5883026,12.6239939,34.0204315,12.6239939z M34.0204315,11.2919626
			c0.3999023,0,0.7475586-0.1499023,1.0439453-0.4501953c0.2958984-0.2998047,0.4438477-0.7456055,0.4438477-1.3378906
			c0-0.5917969-0.1479492-1.0380859-0.4438477-1.3378906c-0.2963867-0.2998042-0.6401367-0.4501948-1.0322266-0.4501948
			c-0.4077148,0-0.7578125,0.1503906-1.0498047,0.4501948c-0.2924805,0.2998047-0.4379883,0.7460938-0.4379883,1.3378906
			c0,0.5922852,0.1455078,1.0380859,0.4379883,1.3378906C33.2743378,11.1420603,33.6200409,11.2919626,34.0204315,11.2919626z"/>
		<path class="st0" d="M44.172287,6.5278029v5.952148H42.81633l-0.1201172-1.0078125
			c-0.184082,0.3520508-0.4501953,0.6318359-0.7978516,0.8398438c-0.3481445,0.2080078-0.7583008,0.3120117-1.2299805,0.3120117
			c-0.7363281,0-1.3081055-0.2319336-1.7163086-0.6958008c-0.4077148-0.4643555-0.6118164-1.144043-0.6118164-2.0400391V6.5278029
			h1.5361328v3.2163081c0,0.5117188,0.1035156,0.9038086,0.3120117,1.1757813
			c0.2075195,0.2719727,0.5317383,0.4082031,0.9716797,0.4082031c0.4321289,0,0.7861328-0.1518555,1.0620117-0.4560547
			s0.4140625-0.7280273,0.4140625-1.2719727V6.5278029H44.172287z"/>
		<path class="st0" d="M45.7318573,12.4799509v-5.952148h1.3681641l0.144043,1.1162109
			c0.2158203-0.3842773,0.5097656-0.6899414,0.8818359-0.9179688S48.9359589,6.38376,49.4398651,6.38376v1.6201167h-0.4316406
			c-0.3359375,0-0.6362305,0.0522461-0.9003906,0.15625c-0.2636719,0.1040039-0.4697266,0.2836914-0.6176758,0.5400391
			c-0.1484375,0.2558594-0.222168,0.6118164-0.222168,1.0678711v2.7119141H45.7318573z"/>
		<path class="st0" d="M52.9442596,12.6239939c-0.5283203,0-0.9921875-0.0859375-1.3920898-0.2578125
			c-0.4003906-0.1723633-0.7202148-0.4101563-0.9599609-0.7143555c-0.2402344-0.3037109-0.3842773-0.6557617-0.4321289-1.0556641
			h1.5478516c0.0478516,0.2319336,0.1782227,0.4296875,0.3901367,0.59375s0.4858398,0.2460938,0.8217773,0.2460938
			s0.5820313-0.0678711,0.7382813-0.2041016c0.1557617-0.1357422,0.2338867-0.2919922,0.2338867-0.4677734
			c0-0.2563477-0.1123047-0.4301758-0.3359375-0.5219727c-0.2241211-0.0922852-0.5361328-0.1821289-0.9360352-0.2700195
			c-0.2563477-0.0561523-0.5161133-0.1240234-0.7797852-0.2041016c-0.2641602-0.0800781-0.5063477-0.1821289-0.7260742-0.3061523
			c-0.2202148-0.1240234-0.3984375-0.2836914-0.5341797-0.4799805c-0.1362305-0.1958008-0.2041016-0.4379883-0.2041016-0.7260742
			c0-0.5278316,0.2099609-0.9716792,0.6298828-1.3320308C51.4261932,6.5639358,52.016037,6.38376,52.7758026,6.38376
			c0.7041016,0,1.2661133,0.1640625,1.6860352,0.4921875c0.4204102,0.328125,0.6699219,0.7797852,0.75,1.3559566h-1.4516602
			c-0.0883789-0.4399409-0.4199219-0.6601558-0.9960938-0.6601558c-0.2880859,0-0.5102539,0.0561523-0.6660156,0.1679688
			c-0.15625,0.1123047-0.2338867,0.2524414-0.2338867,0.4204097c0,0.1757813,0.1157227,0.315918,0.3476563,0.4199219
			s0.5400391,0.2001953,0.9243164,0.2880859c0.4155273,0.0957031,0.7978516,0.2021484,1.1459961,0.3178711
			c0.3476563,0.1162109,0.6259766,0.2880859,0.8339844,0.5161133s0.3120117,0.5537109,0.3120117,0.9780273
			c0.0078125,0.3676758-0.0883789,0.699707-0.2880859,0.9956055c-0.2001953,0.2963867-0.4882813,0.5283203-0.8642578,0.6962891
			S53.4559784,12.6239939,52.9442596,12.6239939z"/>
		<path class="st0" d="M59.675705,12.6239939c-0.6000977,0-1.1318359-0.1279297-1.5957031-0.3842773
			c-0.4643555-0.2558594-0.828125-0.6157227-1.0922852-1.0795898c-0.2636719-0.4638672-0.3959961-1-0.3959961-1.6083984
			c0-0.6157227,0.1298828-1.1635742,0.3901367-1.6435542c0.2597656-0.4799805,0.6196289-0.8540039,1.0800781-1.1220703
			C58.5218964,6.5180373,59.0638885,6.38376,59.687912,6.38376c0.5839844,0,1.0996094,0.128418,1.5478516,0.3842773
			s0.7978516,0.605957,1.050293,1.0498047c0.2519531,0.4443355,0.3779297,0.9379878,0.3779297,1.4819331
			c0,0.0883789-0.0024414,0.1801758-0.0063477,0.2763672c-0.0039063,0.0957031-0.0097656,0.1958008-0.0175781,0.2998047h-4.5244141
			c0.0322266,0.4638672,0.1938477,0.828125,0.4863281,1.0917969c0.2919922,0.2641602,0.6459961,0.3959961,1.0620117,0.3959961
			c0.3120117,0,0.5737305-0.0698242,0.7856445-0.2099609c0.2119141-0.1396484,0.3701172-0.3217773,0.4741211-0.5458984h1.5600586
			c-0.1123047,0.3759766-0.2983398,0.7182617-0.5581055,1.0258789c-0.2597656,0.3081055-0.5800781,0.550293-0.9599609,0.7260742
			S60.1556854,12.6239939,59.675705,12.6239939z M59.687912,7.6318069c-0.3759766,0-0.7080078,0.1064453-0.9960938,0.3183594
			c-0.2880859,0.2119136-0.472168,0.5336909-0.5517578,0.9658198h2.9638672
			c-0.0239258-0.3920898-0.1679688-0.7041016-0.4321289-0.9360347C60.4076385,7.7480178,60.0795135,7.6318069,59.687912,7.6318069z"
			/>
		<path class="st0" d="M63.4554901,12.4799509l3.0722656-8.3999023h1.7280273l3.0717773,8.3999023h-1.6318359l-0.671875-1.9438477
			h-3.2763672l-0.684082,1.9438477H63.4554901z M66.1674042,9.3359079h2.4360352l-1.2236328-3.492187L66.1674042,9.3359079z"/>
		<path class="st0" d="M72.3710175,15.1200876V6.5278029h1.3681641l0.1679688,0.8520508
			c0.1918945-0.2636719,0.4458008-0.4956055,0.762207-0.6958008c0.315918-0.2001953,0.7260742-0.300293,1.2299805-0.300293
			c0.5595703,0,1.0600586,0.1362305,1.5,0.4082031s0.7875977,0.644043,1.0439453,1.1162109
			c0.2558594,0.4716792,0.3837891,1.007812,0.3837891,1.6079097s-0.1279297,1.1337891-0.3837891,1.6020508
			c-0.2563477,0.4677734-0.6040039,0.8359375-1.0439453,1.1040039c-0.4399414,0.2675781-0.9404297,0.4018555-1.5,0.4018555
			c-0.4482422,0-0.840332-0.0839844-1.1762695-0.2519531s-0.6079102-0.4038086-0.815918-0.7080078v3.4560547H72.3710175z
			 M75.575119,11.2797556c0.487793,0,0.8920898-0.1635742,1.2119141-0.4916992
			c0.3203125-0.328125,0.4799805-0.7519531,0.4799805-1.2719727s-0.159668-0.9482422-0.4799805-1.2841797
			c-0.3198242-0.335937-0.7241211-0.5039058-1.2119141-0.5039058c-0.4960938,0-0.9018555,0.1660156-1.2177734,0.4980464
			c-0.3164063,0.3320313-0.4741211,0.7578125-0.4741211,1.277832s0.1577148,0.9462891,0.4741211,1.277832
			C74.6732635,11.1142282,75.0790253,11.2797556,75.575119,11.2797556z"/>
		<path class="st0" d="M80.1947479,15.1200876V6.5278029h1.3681641l0.1679688,0.8520508
			c0.1918945-0.2636719,0.4458008-0.4956055,0.762207-0.6958008c0.315918-0.2001953,0.7260742-0.300293,1.2299805-0.300293
			c0.5595703,0,1.0600586,0.1362305,1.5,0.4082031s0.7875977,0.644043,1.0439453,1.1162109
			c0.2558594,0.4716792,0.3837891,1.007812,0.3837891,1.6079097s-0.1279297,1.1337891-0.3837891,1.6020508
			c-0.2563477,0.4677734-0.6040039,0.8359375-1.0439453,1.1040039c-0.4399414,0.2675781-0.9404297,0.4018555-1.5,0.4018555
			c-0.4482422,0-0.840332-0.0839844-1.1762695-0.2519531s-0.6079102-0.4038086-0.815918-0.7080078v3.4560547H80.1947479z
			 M83.3988495,11.2797556c0.487793,0,0.8920898-0.1635742,1.2119141-0.4916992
			c0.3203125-0.328125,0.4799805-0.7519531,0.4799805-1.2719727s-0.159668-0.9482422-0.4799805-1.2841797
			c-0.3198242-0.335937-0.7241211-0.5039058-1.2119141-0.5039058c-0.4960938,0-0.9018555,0.1660156-1.2177734,0.4980464
			c-0.3164063,0.3320313-0.4741211,0.7578125-0.4741211,1.277832s0.1577148,0.9462891,0.4741211,1.277832
			C82.496994,11.1142282,82.9027557,11.2797556,83.3988495,11.2797556z"/>
	</g>
	<g>
		<circle class="st1" cx="8.2799997" cy="8.2799997" r="8.2799997"/>
		<path class="st2" d="M11.1667433,4.1399961h-5.109971c-0.717454,0-1.3011441,0.5836897-1.3011441,1.3011441v5.6777191
			c0,0.0283012,0.0024548,0.0559959,0.0042453,0.0838633c-0.0017905,0.0244884-0.0042453,0.0488186-0.0042453,0.0736971
			c0,0.0594463,0.0159988,0.114604,0.0418162,0.1638126c0.143641,0.5622482,0.6529546,0.9797716,1.2593279,0.9797716h5.109971
			c0.1960258,0,0.3548574-0.1588316,0.3548574-0.3548574V4.494854C11.5216007,4.2988272,11.3627691,4.1399961,11.1667433,4.1399961z
			 M6.0567722,4.8497114h4.7551136v5.2833557H6.0567722c-0.2130499,0-0.4137402,0.0461044-0.5914288,0.1262131v-4.81814
			C5.4653435,5.1150455,5.7306776,4.8497114,6.0567722,4.8497114z M6.0567722,11.710289
			c-0.2945595,0-0.5374842-0.2171364-0.5821157-0.4993362c0.044776-0.2051229,0.2920179-0.3681707,0.5821157-0.3681707h4.7551136
			v0.867507H6.0567722z"/>
	</g>
</g>
</svg>
